<svg width="32" height="32" viewBox="0 0 32 32" fill="none" xmlns="http://www.w3.org/2000/svg">
<g clip-path="url(#clip0_289_2)">
<path d="M15.2375 0.0150136C15.17 0.0200136 14.95 0.0350136 14.75 0.0500136C11.8975 0.260014 9.0825 1.28001 6.7275 2.96251C2.4975 5.98251 0 10.8225 0 16C0 19.3275 1.035 22.5675 2.965 25.275C5.0175 28.155 7.9925 30.295 11.35 31.31C13.45 31.9425 15.61 32.14 17.775 31.9C21.03 31.535 24.045 30.2075 26.5375 28.04C26.9075 27.7175 27.69 26.935 28.0175 26.56C30.0075 24.275 31.28 21.605 31.775 18.6675C32.4825 14.47 31.4975 10.18 29.035 6.72501C26.83 3.63001 23.58 1.40501 19.925 0.487514C19.075 0.272514 18.3425 0.150014 17.4125 0.0600136C17.0375 0.0250136 15.5225 -0.0074864 15.2375 0.0150136ZM15.6075 1.20751C15.6275 1.23751 15.7025 1.36751 15.7725 1.49501L15.9 1.72251L15.75 1.99251C15.6675 2.14001 15.5325 2.39501 15.45 2.56251C15.365 2.72751 15.2775 2.89001 15.2525 2.92251L15.2075 2.98001L15.1375 2.86001C14.7975 2.26751 14.2575 1.71751 13.74 1.43501C13.645 1.38251 13.5775 1.33751 13.59 1.33251C13.755 1.28501 14.9625 1.16501 15.39 1.15501C15.5525 1.15001 15.5725 1.15501 15.6075 1.20751ZM16.16 1.34251C16.0825 1.45001 16.0125 1.54001 16.005 1.54251C15.995 1.54501 15.9425 1.48001 15.8875 1.39751C15.8325 1.31501 15.7725 1.22501 15.7525 1.19751C15.72 1.15251 15.7275 1.15001 16.0075 1.15001H16.2975L16.16 1.34251ZM17.4625 1.21501C17.995 1.26751 18.425 1.33001 18.425 1.35001C18.425 1.36001 18.3975 1.37751 18.365 1.38501C18.2725 1.40751 17.8875 1.67251 17.6575 1.87251C17.4225 2.07751 17.19 2.35751 16.9575 2.72001L16.7925 2.97501L16.745 2.90751C16.7175 2.86751 16.635 2.71251 16.5575 2.56251C16.4825 2.41001 16.3525 2.16751 16.2725 2.02001C16.19 1.87251 16.125 1.73751 16.125 1.72001C16.125 1.70251 16.195 1.56501 16.2775 1.41501L16.43 1.14251L16.7725 1.16001C16.96 1.17001 17.27 1.19501 17.4625 1.21501ZM13.7125 1.60251C14.2025 2.14251 14.395 2.44501 14.56 2.92251C14.7075 3.34501 14.7325 3.49751 14.7175 3.82501C14.7 4.19251 14.6975 4.19751 14.5675 4.18251C13.715 4.08501 13.0225 3.50751 12.5275 2.47501C12.39 2.19001 12.1875 1.65501 12.2075 1.63501C12.2325 1.61001 13.385 1.35251 13.4625 1.35501C13.4775 1.35501 13.59 1.46751 13.7125 1.60251ZM19.05 1.45501C19.385 1.52251 19.7775 1.61751 19.795 1.63501C19.81 1.65001 19.67 2.04001 19.5575 2.30001C19.2 3.12251 18.72 3.69001 18.1375 3.97751C17.9175 4.08501 17.6 4.17501 17.4375 4.17501C17.31 4.17501 17.305 4.16501 17.2825 3.83501C17.265 3.56501 17.2975 3.37001 17.415 3.00251C17.5825 2.49251 17.8025 2.13501 18.2325 1.68251C18.38 1.52751 18.5 1.38751 18.5 1.37251C18.5 1.34501 18.5325 1.35001 19.05 1.45501ZM12.195 1.90501C12.3725 3.37251 13.0975 4.63001 14.125 5.25251L14.275 5.34251L14.205 5.40751C14.125 5.48251 13.9225 5.58751 13.8025 5.61251C13.6625 5.64251 13.15 5.60251 13.15 5.56001C13.15 5.50251 12.94 5.11501 12.81 4.93501C12.4825 4.47251 11.895 3.82751 11.4875 3.47501C11.0175 3.07001 10.71 2.88251 10.16 2.66001C9.97 2.58501 9.81 2.51751 9.805 2.51251C9.775 2.48251 10.72 2.09751 11.265 1.91501C11.625 1.79501 12.0925 1.65501 12.1375 1.65251C12.1525 1.65001 12.1775 1.76251 12.195 1.90501ZM20.4075 1.80501C21.0125 1.99001 22.2 2.45251 22.2 2.50001C22.2 2.50751 22.09 2.56001 21.9575 2.61251C21.0325 2.97501 20.4 3.46501 19.56 4.47001C19.17 4.93751 18.955 5.27251 18.8675 5.55251C18.845 5.61751 18.33 5.64501 18.145 5.59001C18 5.54751 17.7625 5.40251 17.7625 5.35501C17.7625 5.34001 17.865 5.26001 17.9875 5.18001C18.7975 4.64251 19.4175 3.69751 19.6975 2.56251C19.74 2.39001 19.765 2.23751 19.84 1.73001C19.855 1.63001 19.835 1.62751 20.4075 1.80501ZM16.13 2.26001C16.4 2.99501 16.52 3.61001 16.595 4.63751C16.665 5.60501 16.68 5.50001 16.345 6.48751C16.185 6.95501 16.045 7.36501 16.03 7.40001L16.0075 7.46251L15.97 7.37501C15.95 7.32751 15.8075 6.90501 15.65 6.43751C15.39 5.65001 15.37 5.57501 15.37 5.40001C15.37 5.29751 15.3825 5.14001 15.3975 5.05001C15.4125 4.96001 15.425 4.78501 15.425 4.66251C15.4275 3.89501 15.655 2.77501 15.95 2.08751C16.0125 1.94001 16.015 1.94251 16.13 2.26001ZM9.8975 2.81751C10.2575 3.09251 10.64 3.42001 10.84 3.62751C11.0325 3.83001 11.3275 4.22751 11.485 4.49751C11.625 4.73251 11.86 5.24751 11.84 5.26751C11.805 5.30251 10.825 4.91501 10.4 4.69751C9.85 4.42001 8.225 3.40251 8.225 3.33751C8.225 3.30501 9.5275 2.60251 9.585 2.60001C9.6 2.60001 9.74 2.69751 9.8975 2.81751ZM22.7325 2.75251C23.0275 2.90001 23.715 3.28501 23.7575 3.32501C23.7975 3.36251 23.41 3.63001 22.635 4.10501C21.8625 4.57751 21.3725 4.83751 20.925 5.01001C20.5275 5.16251 20.1625 5.29501 20.155 5.28751C20.14 5.27251 20.3875 4.74001 20.5075 4.52751C20.825 3.97251 21.215 3.53501 21.8325 3.04251C22.36 2.62251 22.385 2.60251 22.4075 2.60001C22.4175 2.60001 22.5625 2.67001 22.7325 2.75251ZM8.7175 3.99751C9.3775 4.65751 9.5575 4.81001 10.125 5.18751C10.7275 5.58751 11.895 6.24001 12.3825 6.45001C12.935 6.68751 13.815 6.92001 14.2025 6.93251C14.315 6.93751 14.35 6.94751 14.35 6.97501C14.35 6.99501 14.3675 7.19251 14.3875 7.41251C14.4375 7.94251 14.4625 9.06251 14.4375 9.70501L14.42 10.2225L14.2075 9.93001C13.6725 9.19751 13.2425 8.74501 12.5125 8.14501C12.3475 8.01001 12.1225 7.82001 12.0125 7.72251C11.565 7.32751 10.8075 6.89001 10.2275 6.68751C9.7625 6.52751 9.1975 6.40751 8.68 6.36001L8.5 6.34251L8.33 6.16251C7.9975 5.80501 7.83 5.42001 7.775 4.88001C7.7475 4.62501 7.7725 4.28751 7.8375 4.03751C7.925 3.70501 8.0575 3.40001 8.1175 3.40001C8.12 3.40001 8.3925 3.66751 8.7175 3.99751ZM23.93 3.43001C23.975 3.46501 24.1025 3.78501 24.16 4.01001C24.355 4.76251 24.1925 5.56751 23.74 6.09501C23.5375 6.33001 23.52 6.34001 23.2 6.37251C22.4975 6.44751 21.77 6.65001 21.19 6.93501C20.795 7.12751 20.265 7.47751 19.975 7.73501C19.8575 7.83751 19.6275 8.03251 19.4625 8.16751C18.865 8.65001 18.1575 9.40751 17.74 10.0075L17.5875 10.23L17.5675 9.79501C17.54 9.22001 17.5625 8.05251 17.6125 7.46251C17.635 7.20001 17.655 6.97751 17.6575 6.96751C17.6625 6.95501 17.725 6.94001 17.8 6.93501C18.11 6.91251 18.785 6.75501 19.2 6.61001C19.6075 6.47001 19.9475 6.30751 20.59 5.95001C22.115 5.10251 22.5725 4.76001 23.535 3.74501C23.715 3.55501 23.87 3.40001 23.8775 3.40001C23.885 3.40001 23.9075 3.41501 23.93 3.43001ZM7.7925 3.69251C7.535 4.03001 7.315 4.49001 7.24 4.85501C7.1875 5.10501 7.19 5.23501 7.25 5.79251C7.28 6.04751 7.2975 6.26251 7.29 6.26751C7.285 6.27501 7.1525 6.29001 6.9975 6.30251C5.9325 6.38751 4.895 6.80001 3.975 7.50001C3.87 7.58001 3.77 7.66251 3.7525 7.68501C3.7325 7.71001 3.695 7.74001 3.6675 7.75251C3.58 7.80001 4.1675 6.98501 4.5625 6.51251C5.195 5.75501 5.945 5.01751 6.7 4.41001C7.065 4.11751 7.835 3.55751 7.8825 3.55251C7.895 3.55001 7.8525 3.61501 7.7925 3.69251ZM24.5 3.81501C25.925 4.80001 27.195 6.07501 28.24 7.57501L28.3875 7.78751L28.1875 7.62501C27.225 6.84001 26.17 6.40251 25.0025 6.30001C24.845 6.28751 24.715 6.27251 24.71 6.26751C24.705 6.26251 24.725 6.05751 24.7525 5.81001C24.8225 5.22001 24.81 4.94751 24.7025 4.62501C24.6025 4.32751 24.41 3.96001 24.235 3.72501C24.16 3.62751 24.115 3.55501 24.1325 3.56501C24.1475 3.57501 24.315 3.68751 24.5 3.81501ZM7.525 7.06251C8.815 7.22251 9.9825 7.78251 10.9325 8.70001C11.155 8.91501 11.195 8.96251 11.1575 8.97751C11.1325 8.98751 11.09 9.02001 11.0625 9.05001C10.9775 9.14751 10.6175 9.41751 10.42 9.53501C10.2175 9.65501 9.965 9.77001 9.76 9.83501L9.63 9.87751L9.36 9.59751C8.5575 8.77501 7.55 8.19251 6.55 7.97751C5.5825 7.77001 4.4475 7.81751 3.6075 8.10001C3.4925 8.13751 3.4 8.16001 3.4 8.15001C3.4 8.13001 3.8775 7.83001 4.125 7.69501C4.6925 7.38501 5.4025 7.15751 6.0875 7.06501C6.435 7.01751 7.1475 7.01751 7.525 7.06251ZM26.155 7.09751C26.765 7.20751 27.42 7.44001 27.935 7.72501C28.2575 7.90501 28.6 8.12251 28.6 8.15001C28.6 8.16001 28.5075 8.13501 28.3975 8.09501C27.9025 7.92001 27.245 7.83751 26.5275 7.85751C25.695 7.88001 25.0575 8.02751 24.38 8.35251C23.7425 8.65501 23.2225 9.02751 22.7025 9.54501L22.37 9.87751L22.2025 9.82251C21.8375 9.70251 21.3625 9.42001 21.0075 9.10751C20.9175 9.03001 20.84 8.97751 20.8225 8.98751C20.7325 9.04501 20.8825 8.87251 21.11 8.66251C22.0925 7.74751 23.2025 7.22501 24.5375 7.05001C24.635 7.03751 24.9725 7.03251 25.2875 7.03751C25.7375 7.04251 25.925 7.05501 26.155 7.09751ZM4.8625 8.21251C5.2475 8.27501 5.49 8.36001 6.1875 8.68501C7.135 9.12751 7.5575 9.37001 7.8525 9.64501C7.99 9.77251 8.175 9.99751 8.175 10.0375C8.175 10.0625 7.665 10.03 7.3125 9.98501C6.17 9.84001 5.0725 9.42001 4.1975 8.79751C3.94 8.61501 3.4925 8.24751 3.51 8.23251C3.5675 8.17501 4.5425 8.16001 4.8625 8.21251ZM28.435 8.21751L28.505 8.24001L28.3475 8.37751C27.4125 9.19251 26.2225 9.74001 24.94 9.95001C24.615 10.0025 23.8575 10.0675 23.835 10.0425C23.8125 10.02 24.0325 9.74501 24.1675 9.62501C24.455 9.37251 24.94 9.09501 25.7425 8.72251C26.595 8.32501 26.7025 8.28751 27.1625 8.21001C27.3825 8.17251 28.305 8.18001 28.435 8.21751ZM3.5725 8.47251C4.05 9.19501 4.9575 9.95751 5.8375 10.3775C6.4175 10.6525 7.18 10.855 8.1525 10.9925C8.535 11.045 9.675 11.0525 10.0625 11.0025C10.7875 10.91 11.86 10.5125 12.0175 10.28L12.0725 10.1975L12.135 10.305C12.2175 10.4475 12.375 10.7825 12.4875 11.0625C12.55 11.22 12.585 11.3525 12.6 11.5C12.63 11.7975 12.6825 12.7275 12.6675 12.74C12.6625 12.7475 12.575 12.705 12.4725 12.6475C12.37 12.59 12.1925 12.4975 12.075 12.445C10.105 11.5325 8.035 11.3875 6.2975 12.035C6.0175 12.1375 5.61 12.1825 5.3 12.145C4.9725 12.105 4.5025 11.8725 4.1125 11.5575C3.59 11.135 3.2475 10.3625 3.2075 9.52501C3.19 9.13251 3.2675 8.53251 3.3675 8.30001C3.4025 8.22001 3.4075 8.21751 3.4325 8.26001C3.45 8.28501 3.5125 8.38001 3.5725 8.47251ZM28.7125 8.56251C28.835 9.09501 28.8275 9.71751 28.6975 10.2175C28.52 10.8925 28.2025 11.3575 27.6675 11.72C27.165 12.0625 26.9075 12.155 26.475 12.1525C26.105 12.15 25.975 12.1275 25.625 12.005C24.455 11.595 23.195 11.525 21.87 11.7975C21.095 11.9575 20.38 12.2125 19.655 12.5875C19.4825 12.6775 19.34 12.7475 19.3375 12.7425C19.3275 12.73 19.375 11.8625 19.4 11.5925C19.425 11.3375 19.4425 11.2625 19.5425 11.0175C19.6025 10.8625 19.715 10.6175 19.79 10.47L19.9275 10.2025L20.0125 10.2975C20.2075 10.5125 20.975 10.82 21.6325 10.9475C22.21 11.06 23.205 11.0775 23.8875 10.9875C24.5075 10.905 25.31 10.72 25.75 10.5575C26.8 10.1675 27.8625 9.33501 28.475 8.41751C28.5475 8.30751 28.615 8.23001 28.625 8.24251C28.6375 8.25251 28.675 8.39751 28.7125 8.56251ZM3.2 8.53751C3.1275 8.74751 3.03 9.20751 3.0025 9.48001C2.9325 10.12 2.9925 10.6075 3.2425 11.455C3.2525 11.485 3.2225 11.5125 3.13 11.56C2.8475 11.7025 2.4575 11.9925 2.1975 12.25C1.825 12.62 1.6375 12.8925 1.4475 13.3375C1.395 13.46 1.35 13.54 1.35 13.5125C1.35 13.485 1.39 13.2725 1.4375 13.04C1.705 11.7425 2.12 10.5325 2.69 9.39251C2.88 9.01751 3.22 8.40001 3.2375 8.40001C3.2425 8.40001 3.225 8.46251 3.2 8.53751ZM28.9675 8.73751C29.605 9.87751 30.1 11.125 30.4225 12.4125C30.5025 12.73 30.65 13.4375 30.65 13.5C30.65 13.52 30.6075 13.4425 30.5575 13.325C30.2525 12.6175 29.745 12.065 29 11.6325C28.87 11.555 28.76 11.49 28.755 11.4875C28.7525 11.485 28.7725 11.42 28.8 11.34C28.9675 10.8525 29.035 10.37 29.0175 9.80751C29.0025 9.29501 28.93 8.87751 28.785 8.46251L28.77 8.41251L28.805 8.46251C28.825 8.49001 28.8975 8.61501 28.9675 8.73751ZM3.755 12.4925C3.9025 12.745 4.075 12.935 4.245 13.0325L4.3825 13.1075L4.2225 13.245C4.135 13.32 3.94 13.5075 3.7875 13.66C2.5925 14.8675 1.865 16.4475 1.6725 18.25C1.6375 18.5775 1.6375 19.4625 1.6725 19.76C1.6875 19.885 1.695 19.9875 1.69 19.995C1.675 20.0075 1.46 19.1075 1.4025 18.7875C1.3325 18.41 1.26 17.915 1.2075 17.4375C1.17 17.1125 1.1625 16.8375 1.165 15.9625C1.165 15.305 1.1775 14.83 1.1925 14.7375C1.2275 14.55 1.41 14.0475 1.5375 13.8C1.925 13.03 2.5475 12.5475 3.4125 12.34C3.495 12.32 3.58 12.3025 3.6025 12.3025C3.6275 12.3 3.685 12.3725 3.755 12.4925ZM28.725 12.375C29.1725 12.485 29.605 12.7275 29.94 13.06C30.27 13.3875 30.4975 13.7725 30.6975 14.345C30.79 14.605 30.8 14.665 30.8275 15.045C30.865 15.58 30.8425 16.9525 30.7875 17.4625C30.7075 18.2275 30.56 19.065 30.4 19.6625L30.3275 19.9375L30.345 19.7C30.375 19.28 30.36 18.41 30.315 18.07C30.2625 17.6525 30.165 17.185 30.06 16.82C29.79 15.8925 29.3025 14.9475 28.7075 14.2025C28.5125 13.9575 27.96 13.3875 27.74 13.2075L27.62 13.1075L27.7375 13.05C27.905 12.97 28.09 12.77 28.2375 12.515C28.38 12.27 28.3425 12.28 28.725 12.375ZM8.6425 13.4125C9.685 13.55 10.69 13.99 11.5625 14.6925C11.8625 14.935 12.3575 15.4375 12.655 15.8C13.3125 16.605 13.735 17.4625 13.95 18.425C14.1225 19.2025 14.1225 20.1725 13.9475 21.2C13.6425 23.01 12.6025 24.5925 11.115 25.5225C10.74 25.7575 10.14 26.025 9.7 26.155C9.4775 26.22 9.035 26.3125 8.7625 26.3525C8.4725 26.395 7.6275 26.395 7.3375 26.3525C6.02 26.16 5.07 25.69 4.065 24.7225C3.8175 24.485 3.7275 24.3775 3.5375 24.0875C2.87 23.07 2.275 21.8375 1.8975 20.6925C1.8325 20.49 1.825 20.44 1.825 20.1275C1.825 18.5325 2.315 16.87 3.12 15.7275C4.0275 14.44 5.5275 13.605 7.2875 13.4025C7.595 13.3675 8.3275 13.3725 8.6425 13.4125ZM25 13.4375C25.6625 13.54 26.26 13.7275 26.8375 14.0125C27.475 14.325 27.92 14.645 28.3725 15.1125C29.49 16.2725 30.0975 17.915 30.1875 20.025L30.2025 20.3875L30.0525 20.8275C29.67 21.94 29.14 23.03 28.4875 24.05C28.285 24.3625 28.21 24.455 27.9325 24.725C27.405 25.24 26.955 25.57 26.425 25.8275C24.4825 26.78 22.105 26.5125 20.3625 25.15C20.0625 24.9125 19.5475 24.395 19.3325 24.1125C18.71 23.2875 18.295 22.385 18.1 21.4275C17.98 20.8375 17.9375 20.395 17.94 19.7125C17.94 19.1475 17.9475 19.02 17.9975 18.7425C18.1775 17.72 18.57 16.8175 19.175 16.025C20.3675 14.465 21.78 13.605 23.5 13.39C23.7075 13.365 24.7475 13.3975 25 13.4375Z" fill="#28ABB9"/>
</g>
<defs>
<clipPath id="clip0_289_2">
<rect width="32" height="32" fill="white"/>
</clipPath>
</defs>
</svg>
